<svg data-v-fde0c5aa="" xmlns="http://www.w3.org/2000/svg" viewBox="0 0 300 300" class="font"><!----><defs data-v-fde0c5aa=""><!----></defs><rect data-v-fde0c5aa="" fill="#FAF6F1" x="0" y="0" width="300px" height="300px" class="logo-background-square"></rect><defs data-v-fde0c5aa=""><linearGradient data-v-fde0c5aa="" gradientTransform="rotate(25)" id="16c9470b-6466-4282-b9e8-15c48d806d68" x1="0%" y1="0%" x2="100%" y2="0%"><stop data-v-fde0c5aa="" offset="0%" stop-color="#913C00" stop-opacity="1"></stop><stop data-v-fde0c5aa="" offset="100%" stop-color="#D9AD76" stop-opacity="1"></stop></linearGradient></defs><g data-v-fde0c5aa="" id="e9c3633c-1a12-49e8-8c87-17a93d723e0e" fill="url(#16c9470b-6466-4282-b9e8-15c48d806d68)" transform="matrix(6.356658935546875,0,0,6.356658935546875,40.000000000000014,111.18961625282168)"><path d="M0 11.75L0.07 12.10C0.62 12.07 1.29 11.91 1.83 11.66C3.09 11.09 3.26 9.93 3.26 8.50L3.26 2.11C3.26 1.33 3.30 1.30 4.52 1.22L4.52 0.81L0.62 0.81L0.62 1.22C1.85 1.30 1.88 1.33 1.88 2.11L1.88 8.58C1.88 9.94 1.64 10.61 1.30 11.02C0.99 11.38 0.49 11.62 0 11.75ZM5.33 4.20L6.34 4.20L6.34 9.07C6.34 10.50 7.41 10.67 7.90 10.67C8.61 10.67 9.28 10.30 9.69 10.05L9.58 9.76C9.24 9.90 8.93 9.94 8.58 9.94C8.11 9.94 7.66 9.60 7.66 8.54L7.66 4.20L9.46 4.20L9.46 3.64L7.66 3.64L7.66 1.88L7.25 1.88L6.40 3.64L5.33 3.64ZM10.16 10.50L13.86 10.50L13.86 10.09C12.61 10.02 12.53 10.00 12.53 9.28L12.53 6.01C12.53 4.93 13.01 4.56 13.33 4.56C13.55 4.56 13.79 4.65 14.20 4.87C14.29 4.93 14.41 4.94 14.48 4.94C14.81 4.94 15.12 4.59 15.12 4.16C15.12 3.85 14.92 3.47 14.38 3.47C13.87 3.47 13.45 3.78 12.53 4.59L12.36 3.47L10.23 3.82L10.23 4.17L10.77 4.24C11.13 4.30 11.21 4.37 11.21 4.87L11.21 9.28C11.21 10.00 11.14 10.02 10.16 10.09ZM15.85 8.68C15.85 9.73 16.55 10.67 17.86 10.67C18.68 10.67 19.50 10.12 19.95 9.83C20.15 10.35 20.37 10.67 20.86 10.67C21.38 10.67 21.98 10.51 22.51 10.25L22.43 9.91C22.23 9.95 21.92 9.98 21.71 9.93C21.46 9.87 21.22 9.60 21.22 8.72L21.22 5.33C21.22 4.52 21.04 3.47 18.93 3.47C17.35 3.47 16.10 4.30 16.10 5.07C16.10 5.52 16.62 5.73 16.88 5.73C17.18 5.73 17.26 5.57 17.33 5.33C17.64 4.30 18.21 3.96 18.77 3.96C19.32 3.96 19.96 4.24 19.96 5.36L19.96 5.95C19.61 6.31 18.26 6.66 17.15 7.01C16.14 7.32 15.85 8.02 15.85 8.68ZM17.26 8.48C17.26 7.83 17.57 7.49 18.35 7.20C18.91 6.99 19.66 6.72 19.96 6.52L19.96 8.50C19.96 9.63 19.10 9.93 18.55 9.93C17.68 9.93 17.26 9.31 17.26 8.48ZM22.76 10.50L26.18 10.50L26.18 10.09C25.19 10.02 25.13 10.00 25.13 9.28L25.13 6.94L25.16 6.94C25.73 7.85 26.73 9.07 27.45 9.81C27.97 10.33 28.52 10.50 28.97 10.53L30.02 10.57L30.02 10.18C29.60 10.07 29.25 9.86 28.81 9.42C27.94 8.57 26.85 7.24 26.32 6.48C26.25 6.38 26.22 6.31 26.36 6.16C27.03 5.39 27.48 4.98 27.96 4.63C28.43 4.28 28.78 4.12 29.60 4.03L29.60 3.64L28.15 3.64C27.68 3.64 27.55 3.71 27.27 4.05C26.87 4.54 25.48 6.27 25.16 6.75L25.13 6.75L25.13 0.20L25.03 0.11L22.83 0.46L22.83 0.81L23.37 0.87C23.73 0.91 23.81 0.98 23.81 1.51L23.81 9.28C23.81 10.00 23.77 10.02 22.76 10.09ZM30.25 4.20L31.26 4.20L31.26 9.07C31.26 10.50 32.33 10.67 32.82 10.67C33.53 10.67 34.20 10.30 34.61 10.05L34.50 9.76C34.16 9.90 33.85 9.94 33.50 9.94C33.03 9.94 32.58 9.60 32.58 8.54L32.58 4.20L34.38 4.20L34.38 3.64L32.58 3.64L32.58 1.88L32.17 1.88L31.32 3.64L30.25 3.64Z"></path></g><!----><!----></svg>